<svg width="40" height="34" viewBox="0 0 40 34" fill="none" xmlns="http://www.w3.org/2000/svg">
<path d="M3.33336 11.6667H33.3334C35.1709 11.6667 36.6667 10.1718 36.6667 8.33336V3.33336C36.6667 1.495 35.1709 0 33.3334 0H3.33336C1.49578 7.8125e-05 0 1.495 0 3.33336V8.33336C0 10.1718 1.49578 11.6667 3.33336 11.6667ZM30 4.16672C30.9196 4.16672 31.6666 4.91461 31.6666 5.83336C31.6666 6.75211 30.9195 7.5 30 7.5C29.0804 7.5 28.3334 6.75211 28.3334 5.83336C28.3334 4.91461 29.0804 4.16672 30 4.16672ZM25 4.16672C25.9196 4.16672 26.6666 4.91461 26.6666 5.83336C26.6666 6.75211 25.9195 7.5 25 7.5C24.0805 7.5 23.3334 6.75211 23.3334 5.83336C23.3334 4.91461 24.0804 4.16672 25 4.16672ZM11.6666 4.16672C11.6666 3.70609 12.0394 3.33336 12.5 3.33336C12.9606 3.33336 13.3334 3.70609 13.3334 4.16672V7.50008C13.3334 7.9607 12.9606 8.33344 12.5 8.33344C12.0394 8.33344 11.6666 7.9607 11.6666 7.50008V4.16672ZM8.33336 4.16672C8.33336 3.70609 8.70609 3.33336 9.16672 3.33336C9.62727 3.33336 10 3.70609 10 4.16672V7.50008C10 7.9607 9.62727 8.33344 9.16664 8.33344C8.70602 8.33344 8.33328 7.9607 8.33328 7.50008V4.16672H8.33336ZM5 4.16672C5 3.70609 5.37273 3.33336 5.83336 3.33336C6.29398 3.33336 6.66672 3.70609 6.66672 4.16672V7.50008C6.66672 7.9607 6.29398 8.33344 5.83336 8.33344C5.37273 8.33344 5 7.9607 5 7.50008V4.16672Z" fill="#FC7D21"/>
<path d="M25.2751 14.8812C25.5973 14.6884 25.7503 14.3051 25.6495 13.9445C25.5502 13.5832 25.2214 13.3334 24.847 13.3334H3.33336C1.49578 13.3334 0 14.8284 0 16.6667V21.6667C0 23.5051 1.49578 25.0001 3.33336 25.0001H19.1667C19.6273 25.0001 20.0001 24.6273 20.0001 24.1667C20 20.3345 21.9727 16.8637 25.2751 14.8812ZM6.66664 20.8334C6.66664 21.294 6.29391 21.6667 5.83328 21.6667C5.37273 21.6667 5 21.294 5 20.8334V17.5C5 17.0395 5.37273 16.6667 5.83336 16.6667C6.29398 16.6667 6.66672 17.0395 6.66672 17.5001V20.8334H6.66664ZM10 20.8334C10 21.294 9.62727 21.6667 9.16664 21.6667C8.70602 21.6667 8.33328 21.294 8.33328 20.8334V17.5C8.33328 17.0394 8.70602 16.6666 9.16664 16.6666C9.62727 16.6666 10 17.0394 10 17.5V20.8334ZM13.3334 20.8334C13.3334 21.294 12.9606 21.6667 12.5 21.6667C12.0394 21.6667 11.6666 21.294 11.6666 20.8334V17.5C11.6666 17.0394 12.0394 16.6666 12.5 16.6666C12.9606 16.6666 13.3334 17.0394 13.3334 17.5V20.8334Z" fill="#FC7D21"/>
<path d="M30.8334 15.0001C25.7796 15.0001 21.6667 19.1122 21.6667 24.1667C21.6667 29.2212 25.7797 33.3334 30.8334 33.3334C35.887 33.3334 40 29.2212 40 24.1667C40 19.1122 35.887 15.0001 30.8334 15.0001ZM25.8341 25.0001L25.8341 25L25.8334 25.0001C25.3727 25.0001 25 24.6273 25 24.1667C25 20.9505 27.6172 18.3334 30.8334 18.3334C32.7743 18.3334 34.5826 19.2945 35.6698 20.905C35.9277 21.2859 35.8277 21.8042 35.4459 22.0614C35.0659 22.3202 34.5459 22.2184 34.2895 21.8376C33.5116 20.6869 32.22 20 30.8333 20C29.6437 20 28.576 20.5073 27.816 21.3095L28.706 21.7546C28.9713 21.8873 29.1462 22.1517 29.165 22.448C29.1837 22.745 29.0429 23.0291 28.7955 23.1934L26.2955 24.8601C26.2803 24.8702 26.2619 24.8661 26.2463 24.875C26.1235 24.947 25.9884 24.999 25.8358 24.9995C25.8358 24.9995 25.8347 25.0001 25.8341 25.0001ZM30.8334 30.0001C28.8924 30.0001 27.0841 29.039 25.9969 27.4284C25.739 27.0476 25.8391 26.5292 26.2208 26.272C26.6 26.0141 27.12 26.1141 27.3772 26.4959C28.1552 27.6466 29.4467 28.3334 30.8334 28.3334C32.023 28.3334 33.0907 27.8261 33.8507 27.0239L32.9607 26.5788C32.6954 26.4462 32.5205 26.1817 32.5017 25.8855C32.483 25.5884 32.6238 25.3044 32.8712 25.14L35.3712 23.4734C35.3904 23.4605 35.3972 23.4714 35.4143 23.4626C35.5392 23.3879 35.6772 23.3334 35.8334 23.3334C36.2941 23.3334 36.6668 23.7061 36.6668 24.1667C36.6666 27.3829 34.0495 30.0001 30.8334 30.0001Z" fill="#FC7D21"/>
</svg>
